<svg width="262" height="262" fill="none" xmlns="http://www.w3.org/2000/svg"><circle cx="131" cy="131" r="131" fill="#EDEDED"/><path d="M88.207 179c-4.927 0-10.437-.18-16.528-.54-6.003-.36-11.333-.809-15.991-1.349V166.45c11.646 1.17 21.366 1.755 29.16 1.755 4.837 0 8.645-.18 11.422-.54 2.866-.45 5.285-1.215 7.256-2.294 1.792-1.08 2.956-2.654 3.494-4.723.537-2.159.806-4.993.806-8.502 0-4.228-.224-7.197-.672-8.906-.448-1.799-1.523-3.104-3.225-3.913-1.612-.81-4.434-1.395-8.466-1.755l-22.844-2.563c-5.554-.63-9.765-1.935-12.631-3.914-2.777-2.069-4.659-4.723-5.644-7.961-.896-3.329-1.344-7.647-1.344-12.955 0-7.377 1.254-12.955 3.763-16.733 2.598-3.778 6.181-6.297 10.75-7.557C72.17 84.63 78.397 84 86.19 84c5.196 0 10.482.225 15.857.675 5.375.45 9.63.99 12.766 1.619V96.55c-3.404-.54-7.615-.945-12.632-1.215-5.017-.36-9.675-.54-13.975-.54-5.017 0-9.048.225-12.094.675-3.046.45-5.42 1.215-7.122 2.294-1.881 1.08-3.09 2.519-3.628 4.318-.538 1.8-.806 4.364-.806 7.692 0 3.689.268 6.387.806 8.097.537 1.619 1.567 2.834 3.09 3.643 1.523.72 4.032 1.26 7.526 1.62l22.575 2.563c5.375.54 9.541 1.485 12.497 2.834 2.957 1.35 5.107 3.779 6.45 7.287 1.255 3.239 1.882 8.412 1.882 15.519 0 8.186-1.255 14.304-3.763 18.352-2.508 3.958-5.868 6.522-10.078 7.692-4.211 1.079-9.989 1.619-17.335 1.619zM141.945 85.08h40.583c7.435 0 13.079 1.214 16.931 3.643 3.852 2.429 6.406 5.713 7.66 9.85 1.254 4.139 1.881 9.492 1.881 16.059 0 6.297-.627 11.56-1.881 15.788-1.254 4.139-3.852 7.467-7.794 9.986-3.852 2.519-9.541 3.779-17.066 3.779h-28.757v33.735h-11.557V85.08zm36.417 48.309c5.823 0 10.078-.585 12.766-1.754 2.687-1.26 4.434-3.149 5.24-5.668.807-2.519 1.21-6.297 1.21-11.335 0-5.038-.403-8.816-1.21-11.335-.716-2.519-2.418-4.363-5.106-5.533-2.598-1.26-6.808-1.889-12.631-1.889h-25.129v37.514h24.86z" fill="#818181"/></svg>